<svg xmlns="http://www.w3.org/2000/svg" viewBox="0 0 500 500"><g id="freepik--background-simple--inject-48"><path d="M412.12,129.9C382.81,87.23,332.69,141.15,302.78,163c-41.4,30.19-73.38,4.36-111.91-15.47C106.33,104,19.61,174.34,79.43,261.64c45.32,66.15,149.35,65.21,207.48,18.08,15.47-12.54,24.13-33.56,39.88-44.59s32.56-9.39,49.77-17.3C406.26,204.18,437,166.15,412.12,129.9Z" style="fill:#407BFF"></path><path d="M412.12,129.9C382.81,87.23,332.69,141.15,302.78,163c-41.4,30.19-73.38,4.36-111.91-15.47C106.33,104,19.61,174.34,79.43,261.64c45.32,66.15,149.35,65.21,207.48,18.08,15.47-12.54,24.13-33.56,39.88-44.59s32.56-9.39,49.77-17.3C406.26,204.18,437,166.15,412.12,129.9Z" style="fill:#fff;opacity:0.9"></path></g></svg>